<svg xmlns="http://www.w3.org/2000/svg" width="62" height="63" viewBox="0 0 62 63" fill="none">
<g clip-path="url(#clip0_469_201)">
<path d="M60.5455 24.585C61.2779 24.2158 61.6441 23.1696 61.4304 21.5696C60.8201 19.5389 59.9961 17.5696 59.0196 15.7235C58.0431 14.4927 57.0665 14.0004 56.2731 14.2466C53.9538 14.985 51.543 15.5389 49.3457 14.0312C45.6837 16.7081 46.0499 26.0004 45.5616 31.7235C45.5311 32.4312 45.4701 33.0158 45.3175 33.6927C45.3175 33.7235 45.287 33.8773 45.287 33.8773C44.7072 36.6158 43.3949 39.2004 41.2893 41.3235C35.5216 47.1389 26.1834 47.1389 20.4157 41.3235C14.648 35.5081 14.648 26.0927 20.4157 20.2773C22.5214 18.1542 25.1153 16.8312 27.8008 16.2466C27.8008 16.2466 28.1975 16.1542 28.5637 16.1235C28.6858 16.0927 28.7773 16.0927 28.8994 16.0619C29.1741 16.0312 29.4487 16.0004 29.7539 15.9696C35.2164 15.4466 44.7682 15.7542 47.5758 12.2158C46.0194 9.96963 46.5687 7.50809 47.3316 5.13886C47.5758 4.36963 47.118 3.35425 45.8668 2.36963C44.0358 1.38502 42.0827 0.554248 40.0686 -0.0611362C38.5122 -0.245752 37.4747 0.123479 37.0779 0.831171C35.7657 3.35425 34.2399 5.75425 30.7304 5.75425C27.221 5.75425 25.6951 3.35425 24.3829 0.831171C24.0167 0.0927099 22.9791 -0.276521 21.3922 -0.0611362C19.3781 0.554248 17.425 1.38502 15.594 2.36963C14.3734 3.35425 13.8851 4.33886 14.1292 5.10809C14.9837 7.81579 15.594 10.6158 13.0916 13.1081C10.6198 15.6004 7.84274 15.0158 5.15725 14.1542C4.39432 13.9081 3.38727 14.4004 2.41072 15.6312C1.43418 17.4773 0.610226 19.4466 -0.000112437 21.4773C-0.183214 23.0466 0.182989 24.0927 0.884878 24.4927C3.38727 25.8158 5.76759 27.3542 5.76759 30.8927C5.76759 34.4312 3.38727 35.9696 0.884878 37.2927C0.152472 37.6619 -0.213731 38.7081 -0.000112437 40.3081C0.610226 42.3389 1.43418 44.3081 2.41072 46.1542C3.38727 47.385 4.36381 47.8773 5.15725 47.6312C7.84274 46.7696 10.6198 46.1542 13.0916 48.6773C15.5635 51.1696 14.9837 53.9696 14.1292 56.6773C13.8851 57.4466 14.3428 58.4619 15.594 59.4466C17.425 60.4312 19.3781 61.2619 21.3922 61.8773C22.9486 62.0619 23.9862 61.6927 24.3829 60.985C25.6951 58.4619 27.221 56.0619 30.7304 56.0619C34.2399 56.0619 35.7657 58.4619 37.0779 60.985C37.4441 61.7235 38.4817 62.0927 40.0686 61.8773C42.0827 61.2619 44.0358 60.4312 45.8668 59.4466C47.0875 58.4619 47.5758 57.4773 47.3316 56.6773C46.4772 53.9696 45.8668 51.1696 48.3692 48.6773C50.8411 46.185 53.6181 46.7696 56.3036 47.6312C57.0665 47.8773 58.0736 47.4158 59.0501 46.1542C60.0267 44.3081 60.8506 42.3389 61.461 40.3081C61.6441 38.7389 61.2779 37.6927 60.576 37.2927C58.2567 36.0927 56.09 34.6466 55.7543 31.6927V30.1542C56.0289 27.2619 58.2262 25.8158 60.5455 24.585Z" fill="#121212"/>
<path d="M50.6275 29.8159C49.9867 29.8159 49.4679 30.339 49.4679 30.9852C49.4679 41.3852 41.0757 49.8467 30.761 49.8467C20.4463 49.8467 12.0541 41.3852 12.0541 30.9852C12.0541 20.5852 20.4463 12.1236 30.761 12.1236C31.4019 12.1236 31.9207 11.6005 31.9207 10.9544C31.9207 10.3082 31.4019 9.78516 30.761 9.78516C19.1646 9.78516 9.73486 19.3236 9.73486 31.0159C9.73486 42.7082 19.1646 52.2467 30.7915 52.2467C42.4185 52.2467 51.8482 42.739 51.8482 31.0159C51.7872 30.339 51.2684 29.8159 50.6275 29.8159Z" fill="#00A0E3"/>
</g>
</svg>